<?xml version="1.0" encoding="UTF-8"?>
<svg id="Layer_1" xmlns="http://www.w3.org/2000/svg" version="1.1" xmlns:xlink="http://www.w3.org/1999/xlink" viewBox="0 0 1600 338">
  <defs>
    <style>
      .st0 {
        fill: url(#linear-gradient2);
      }

      .st1 {
        fill: url(#linear-gradient1);
      }

      .st2 {
        fill: #80bd3a;
      }

      .st3 {
        fill: #194939;
      }

      .st4 {
        fill: url(#linear-gradient);
      }
    </style>
    <linearGradient id="linear-gradient" x1="309.33" y1="-343.41" x2="536.54" y2="-343.41" gradientTransform="translate(98.2 622.07) rotate(-45)" gradientUnits="userSpaceOnUse">
      <stop offset="0" stop-color="#194939"/>
      <stop offset=".57" stop-color="#80bd3a"/>
      <stop offset="1" stop-color="#80bd3a"/>
    </linearGradient>
    <linearGradient id="linear-gradient1" x1="504.67" y1="-190.08" x2="310.53" y2="-275.59" gradientTransform="translate(98.2 622.07) rotate(-45)" gradientUnits="userSpaceOnUse">
      <stop offset="0" stop-color="#194939"/>
      <stop offset="0" stop-color="#1a4b39"/>
      <stop offset=".13" stop-color="#3e7339"/>
      <stop offset=".25" stop-color="#589039"/>
      <stop offset=".35" stop-color="#68a139"/>
      <stop offset=".42" stop-color="#6ea83a"/>
      <stop offset=".58" stop-color="#80bd3a"/>
      <stop offset=".71" stop-color="#619b39"/>
      <stop offset="1" stop-color="#194939"/>
    </linearGradient>
    <linearGradient id="linear-gradient2" x1="276.16" y1="-121.93" x2="496.17" y2="-124.22" gradientTransform="translate(98.2 622.07) rotate(-45)" gradientUnits="userSpaceOnUse">
      <stop offset="0" stop-color="#80bd3a"/>
      <stop offset=".57" stop-color="#80bd3a"/>
      <stop offset=".63" stop-color="#78b439"/>
      <stop offset=".73" stop-color="#659e39"/>
      <stop offset=".86" stop-color="#457a39"/>
      <stop offset="1" stop-color="#194939"/>
      <stop offset="1" stop-color="#194939"/>
    </linearGradient>
  </defs>
  <g>
    <path class="st3" d="M611.38,87.68l-13.08,31.68h-72.93c-4.31,0-7.68,1.26-10.11,3.77-2.43,2.52-3.64,5.98-3.64,10.38,0,6.11,4.81,10.88,14.42,14.29,6.29,2.34,16.26,4.4,29.93,6.2,13.66,1.8,25.48,4.49,35.45,8.09,20.58,9.26,30.69,24.49,30.33,45.7-.27,15.1-5.93,26.51-16.99,34.24-9.62,6.74-21.16,10.11-34.64,10.11h-102.45l13.08-31.68h89.37c4.13,0,7.41-.9,9.84-2.7,2.61-2.43,3.86-5.88,3.77-10.38.09-7.55-3.42-12.94-10.51-16.18-6.65-2.97-18.09-5.77-34.31-8.43-16.22-2.65-29.32-5.86-39.29-9.64-17.34-8.27-26.02-21.48-26.02-39.63,0-13.93,5.35-25.21,16.04-33.83,9.79-8,21.7-12,35.72-12h86Z"/>
    <path class="st3" d="M675.55,252.14h-40.58V87.82h100.43c15.73,0,28.98,5.35,39.77,16.04,9.62,9.71,14.42,23.32,14.42,40.85s-4.81,31.1-14.42,40.71c-10.78,10.78-24.04,16.18-39.77,16.18h-59.85l13.48-32.62h46.37c2.88,0,5.57-1.26,8.09-3.77,3.68-3.59,5.53-10.42,5.53-20.49s-1.84-17.03-5.53-20.62c-2.52-2.52-5.21-3.77-8.09-3.77h-59.85v131.84Z"/>
    <path class="st3" d="M843.65,252.14h-40.57V87.82h136.42l-13.48,32.49h-82.36v131.84ZM857.13,152.39h77.64l-13.48,32.49h-77.65l13.48-32.49ZM857.13,219.66h82.36l-13.48,32.49h-82.36l13.48-32.49Z"/>
    <path class="st3" d="M1064.59,237.04l-74.68-84.65v99.75h-36.53V87.82h31.14l80.07,94.09v55.13ZM1074.56,87.82h36.53v164.32h-36.53V87.82Z"/>
    <path class="st3" d="M1173.24,252.14h-40.57V87.82h79.53c22.65,0,41.83,7.86,57.56,23.59,14.56,14.56,21.84,34.1,21.84,58.64s-7.28,43.95-21.84,58.5c-15.73,15.73-34.91,23.59-57.56,23.59h-38.96l13.48-32.49h25.48c9.79,0,18.47-3.73,26.02-11.19,8.54-8.63,12.81-21.43,12.81-38.42s-4.27-29.93-12.81-38.55c-7.55-7.46-16.22-11.19-26.02-11.19h-38.96v131.84Z"/>
    <path class="st3" d="M1351.71,252.14h-40.58V87.82h40.58v164.32Z"/>
    <path class="st3" d="M1475.73,219.66l13.75,32.49h-122.94l75.08-164.32h27.37l75.08,164.32h-42.06l-46.78-108.38-31.68,75.89h52.17Z"/>
  </g>
  <g>
    <path class="st4" d="M264.79,29.88L104.13,190.54l-.26-.26c-1.45-1.45-2.84-2.95-4.17-4.48-28.79-33.22-27.4-83.53,4.17-115.1l40.81-40.81c33.17-33.17,86.95-33.17,120.11,0Z"/>
    <path class="st1" d="M320.18,130.03l.26.26-78.49,78.49c-22.12,22.12-53.44,29.42-81.64,21.92-12.05-3.21-23.52-9.12-33.47-17.75-1.53-1.33-3.03-2.72-4.48-4.17l-.26-.26,78.49-78.49c22.12-22.12,53.44-29.42,81.64-21.92,12.7,3.39,24.78,9.78,35.09,19.18.97.88,1.92,1.79,2.86,2.73Z"/>
    <path class="st0" d="M338.43,148.27l.26.26c1.2,1.2,2.35,2.42,3.45,3.67,29.53,33.21,28.37,84.09-3.45,115.92l-41,41c-33.17,33.17-86.95,33.17-120.11,0l160.85-160.85Z"/>
    <path class="st2" d="M385.68,185.95c0,21.74-8.29,43.47-24.88,60.06l-22.11,22.11c31.83-31.83,32.98-82.71,3.45-115.92-1.1-1.25-2.26-2.47-3.45-3.67l-18.5-18.5c-.94-.94-1.89-1.85-2.86-2.73-10.32-9.4-22.39-15.8-35.09-19.18-28.19-7.51-59.52-.2-81.63,21.92l22.11-22.11c13.64-13.64,30.76-21.67,48.5-24.09,24.63-3.37,50.45,4.08,69.79,22.33.03.02.05.04.07.06.02.02.04.04.06.06.09.08.22.21.39.37.11.11.24.24.39.38.25.25.56.56.92.9.32.32.68.67,1.07,1.06,4.06,3.98,11.52,11.33,16.58,16.56.6.63,1.18,1.23,1.71,1.79.05.05.1.1.14.15.27.28.52.54.75.8.76.82,1.5,1.65,2.22,2.49.01.01.02.03.03.04,13.57,15.85,20.35,35.5,20.36,55.16Z"/>
    <path class="st2" d="M241.96,208.78l-22.3,22.3c-13.56,13.56-30.57,21.58-48.21,24.05-24.4,3.42-50-3.77-69.34-21.58h0s-.01-.01-.02-.02c-.02-.02-.06-.06-.12-.11-1.41-1.35-13.6-13.08-20.21-19.95-1.78-1.85-3.16-3.35-3.82-4.21h0c-14.17-16.04-21.26-36.12-21.26-56.22,0-21.74,8.29-43.47,24.88-60.06l22.3-22.3c-31.57,31.57-32.96,81.88-4.17,115.1,1.33,1.53,2.72,3.03,4.17,4.48l18.5,18.5c1.45,1.45,2.95,2.84,4.48,4.17,9.94,8.62,21.42,14.54,33.47,17.75,28.19,7.51,59.52.2,81.63-21.92Z"/>
    <path class="st2" d="M102.1,233.55h0s0,0-.02-.01c0,0,.01.01.02.01Z"/>
  </g>
</svg>