<?xml version="1.0" encoding="UTF-8"?>
<svg id="Layer_1" xmlns="http://www.w3.org/2000/svg" version="1.1" xmlns:xlink="http://www.w3.org/1999/xlink" viewBox="0 0 1000 1000">
  <!-- Generator: Adobe Illustrator 29.0.0, SVG Export Plug-In . SVG Version: 2.1.0 Build 186)  -->
  <defs>
    <style>
      .st0 {
        fill: url(#linear-gradient2);
      }

      .st1 {
        fill: url(#linear-gradient1);
      }

      .st2 {
        fill: #80bd3a;
      }

      .st3 {
        fill: #194939;
      }

      .st4 {
        fill: url(#linear-gradient);
      }
    </style>
    <linearGradient id="linear-gradient" x1="193.73" y1="175.22" x2="338.07" y2="175.22" gradientTransform="translate(-223.72 506.88) rotate(-45)" gradientUnits="userSpaceOnUse">
      <stop offset="0" stop-color="#194939"/>
      <stop offset=".57" stop-color="#80bd3a"/>
      <stop offset="1" stop-color="#80bd3a"/>
    </linearGradient>
    <linearGradient id="linear-gradient1" x1="317.83" y1="272.62" x2="194.5" y2="218.3" gradientTransform="translate(-223.72 506.88) rotate(-45)" gradientUnits="userSpaceOnUse">
      <stop offset="0" stop-color="#194939"/>
      <stop offset="0" stop-color="#1a4b39"/>
      <stop offset=".13" stop-color="#3e7339"/>
      <stop offset=".25" stop-color="#589039"/>
      <stop offset=".35" stop-color="#68a139"/>
      <stop offset=".42" stop-color="#6ea83a"/>
      <stop offset=".58" stop-color="#80bd3a"/>
      <stop offset=".71" stop-color="#619b39"/>
      <stop offset="1" stop-color="#194939"/>
    </linearGradient>
    <linearGradient id="linear-gradient2" x1="172.66" y1="315.91" x2="312.42" y2="314.46" gradientTransform="translate(-223.72 506.88) rotate(-45)" gradientUnits="userSpaceOnUse">
      <stop offset="0" stop-color="#80bd3a"/>
      <stop offset=".57" stop-color="#80bd3a"/>
      <stop offset=".63" stop-color="#78b439"/>
      <stop offset=".73" stop-color="#659e39"/>
      <stop offset=".86" stop-color="#457a39"/>
      <stop offset="1" stop-color="#194939"/>
      <stop offset="1" stop-color="#194939"/>
    </linearGradient>
  </defs>
  <g>
    <path class="st3" d="M379.84,447.88l-8.33,20.18h-46.46c-2.75,0-4.9.8-6.44,2.4-1.55,1.6-2.32,3.81-2.32,6.61,0,3.89,3.06,6.93,9.19,9.1,4.01,1.49,10.36,2.81,19.06,3.95,8.7,1.15,16.23,2.86,22.58,5.15,13.11,5.9,19.55,15.6,19.32,29.11-.17,9.62-3.78,16.89-10.82,21.81-6.13,4.29-13.48,6.44-22.07,6.44h-65.26l8.33-20.18h56.93c2.63,0,4.72-.57,6.27-1.72,1.66-1.55,2.46-3.75,2.4-6.61.06-4.81-2.18-8.24-6.7-10.3-4.24-1.89-11.52-3.68-21.85-5.37-10.33-1.69-18.68-3.74-25.03-6.14-11.05-5.27-16.57-13.68-16.57-25.25,0-8.87,3.41-16.06,10.22-21.55,6.24-5.09,13.83-7.64,22.76-7.64h54.79Z"/>
    <path class="st3" d="M420.71,552.65h-25.85v-104.68h63.98c10.02,0,18.46,3.41,25.33,10.22,6.13,6.18,9.19,14.86,9.19,26.02s-3.06,19.81-9.19,25.93c-6.87,6.87-15.32,10.31-25.33,10.31h-38.13l8.59-20.78h29.54c1.83,0,3.55-.8,5.15-2.4,2.35-2.29,3.52-6.64,3.52-13.05s-1.17-10.85-3.52-13.14c-1.6-1.6-3.32-2.4-5.15-2.4h-38.13v83.98Z"/>
    <path class="st3" d="M527.8,552.65h-25.85v-104.68h86.9l-8.59,20.7h-52.47v83.98ZM536.39,489.1h49.46l-8.59,20.7h-49.46l8.59-20.7ZM536.39,531.95h52.47l-8.59,20.7h-52.47l8.59-20.7Z"/>
    <path class="st3" d="M668.55,543.03l-47.57-53.93v63.55h-23.27v-104.68h19.84l51.01,59.94v35.12ZM674.9,447.97h23.27v104.68h-23.27v-104.68Z"/>
    <path class="st3" d="M737.76,552.65h-25.85v-104.68h50.67c14.43,0,26.65,5.01,36.67,15.03,9.27,9.27,13.91,21.73,13.91,37.36s-4.64,28-13.91,37.27c-10.02,10.02-22.24,15.03-36.67,15.03h-24.82l8.59-20.7h16.23c6.24,0,11.76-2.38,16.57-7.13,5.44-5.5,8.16-13.65,8.16-24.47s-2.72-19.06-8.16-24.56c-4.81-4.75-10.33-7.13-16.57-7.13h-24.82v83.98Z"/>
    <path class="st3" d="M851.46,552.65h-25.85v-104.68h25.85v104.68Z"/>
    <path class="st3" d="M930.46,531.95l8.76,20.7h-78.32l47.83-104.68h17.43l47.83,104.68h-26.79l-29.8-69.04-20.18,48.35h33.23Z"/>
  </g>
  <g>
    <path class="st4" d="M158.3,410.8l-102.06,102.06-.17-.17c-.92-.92-1.81-1.87-2.65-2.85-18.29-21.1-17.41-53.06,2.65-73.12l25.93-25.93c21.07-21.07,55.23-21.07,76.3,0Z"/>
    <path class="st1" d="M193.49,474.42l.17.17-49.86,49.86c-14.05,14.05-33.95,18.69-51.86,13.92-7.65-2.04-14.94-5.8-21.26-11.27-.97-.84-1.92-1.73-2.85-2.65l-.17-.17,49.86-49.86c14.05-14.05,33.95-18.69,51.86-13.92,8.07,2.15,15.74,6.21,22.29,12.19.61.56,1.22,1.14,1.82,1.74Z"/>
    <path class="st0" d="M205.08,486.01l.17.17c.76.76,1.49,1.54,2.19,2.33,18.76,21.1,18.02,53.42-2.19,73.64l-26.05,26.05c-21.07,21.07-55.23,21.07-76.3,0l102.18-102.18Z"/>
    <path class="st2" d="M235.1,509.95c0,13.81-5.27,27.61-15.81,38.15l-14.05,14.05c20.22-20.22,20.95-52.54,2.19-73.64-.7-.79-1.43-1.57-2.19-2.33l-11.76-11.76c-.6-.6-1.2-1.17-1.82-1.74-6.55-5.97-14.22-10.04-22.29-12.19-17.91-4.77-37.81-.13-51.86,13.92l14.05-14.05c8.66-8.66,19.54-13.76,30.81-15.31,15.65-2.14,32.05,2.59,44.33,14.18.02.01.03.03.05.04.01.01.02.02.04.04.06.05.14.13.25.24.07.07.15.15.25.24.16.16.36.35.58.57.2.2.43.42.68.67,2.58,2.53,7.32,7.2,10.53,10.52.38.4.75.78,1.09,1.14.03.03.06.06.09.09.17.18.33.34.48.51.48.52.95,1.05,1.41,1.58,0,0,.01.02.02.02,8.62,10.07,12.93,22.55,12.93,35.04Z"/>
    <path class="st2" d="M143.8,524.45l-14.17,14.17c-8.62,8.62-19.42,13.71-30.62,15.28-15.5,2.17-31.76-2.4-44.05-13.71h0s0,0-.01-.01c-.01-.01-.04-.04-.07-.07-.9-.86-8.64-8.31-12.84-12.67-1.13-1.18-2.01-2.13-2.42-2.67h0c-9-10.19-13.5-22.94-13.51-35.71,0-13.81,5.27-27.61,15.81-38.15l14.17-14.17c-20.06,20.06-20.94,52.02-2.65,73.12.84.97,1.73,1.92,2.65,2.85l11.76,11.76c.92.92,1.87,1.81,2.85,2.65,6.32,5.48,13.61,9.23,21.26,11.27,17.91,4.77,37.81.13,51.86-13.92Z"/>
    <path class="st2" d="M54.95,540.19h0s0,0-.01,0c0,0,0,0,.01,0Z"/>
  </g>
</svg>