<svg width="300" height="300" viewBox="0 0 300 300" fill="none" xmlns="http://www.w3.org/2000/svg">
<rect width="300" height="300" rx="61" fill="#194939"/>
<g clip-path="url(#clip0_46_46)" filter="url(#filter0_i_46_46)">
<path d="M176.509 65.125L78.845 162.79L78.685 162.63C77.8013 161.746 76.9575 160.838 76.15 159.905C58.65 139.711 59.4938 109.126 78.685 89.935L103.494 65.1263C123.656 44.9638 156.346 44.9638 176.51 65.1263L176.509 65.125Z" fill="url(#paint0_linear_46_46)"/>
<path d="M210.183 126.005L210.343 126.165L162.629 173.879C149.184 187.324 130.144 191.765 113.004 187.201C105.681 185.25 98.7051 181.655 92.6588 176.414C91.7263 175.606 90.8176 174.762 89.9338 173.879L89.7738 173.719L137.488 126.005C150.933 112.56 169.973 108.119 187.113 112.682C194.835 114.74 202.174 118.629 208.443 124.344C209.031 124.881 209.613 125.434 210.181 126.004L210.183 126.005Z" fill="url(#paint1_linear_46_46)"/>
<path d="M221.271 137.094L221.431 137.254C222.159 137.981 222.859 138.724 223.531 139.484C241.48 159.67 240.779 190.601 221.431 209.949L196.506 234.874C176.344 255.036 143.654 255.036 123.49 234.874L221.271 137.092V137.094Z" fill="url(#paint2_linear_46_46)"/>
<path d="M250 160C249.996 173.214 244.958 186.424 234.874 196.507L221.431 209.95C240.78 190.601 241.48 159.671 223.531 139.484C222.86 138.726 222.16 137.984 221.431 137.255L210.183 126.006C209.611 125.435 209.031 124.884 208.444 124.345C202.173 118.629 194.834 114.741 187.111 112.684C169.973 108.119 150.933 112.561 137.488 126.006L150.93 112.564C159.22 104.274 169.628 99.3923 180.411 97.9173C195.383 95.8685 211.076 100.395 222.835 111.489C222.851 111.501 222.868 111.515 222.88 111.527C222.893 111.54 222.903 111.55 222.915 111.562C222.97 111.614 223.048 111.691 223.15 111.789C223.218 111.856 223.295 111.934 223.385 112.017C223.54 112.172 223.728 112.356 223.943 112.562C224.136 112.756 224.355 112.969 224.594 113.205C227.061 115.625 231.594 120.092 234.675 123.27C235.043 123.651 235.394 124.015 235.718 124.357C235.746 124.386 235.775 124.419 235.801 124.447C235.966 124.615 236.118 124.776 236.256 124.931C236.718 125.427 237.169 125.931 237.608 126.444C237.614 126.45 237.62 126.46 237.624 126.466C245.873 136.099 249.995 148.047 249.999 160H250Z" fill="#80BD3A"/>
<path d="M162.63 173.879L149.071 187.437C140.826 195.682 130.486 200.557 119.768 202.057C104.938 204.139 89.3725 199.764 77.615 188.937V188.934C77.615 188.934 77.6087 188.93 77.605 188.927C77.5925 188.917 77.57 188.892 77.5338 188.86C76.6763 188.037 69.2687 180.911 65.25 176.734C64.1663 175.607 63.3275 174.695 62.93 174.175L62.9263 174.171C54.31 164.426 50.0037 152.22 50 140C50.0037 126.786 55.0425 113.576 65.1263 103.492L78.685 89.9336C59.4937 109.125 58.6488 139.71 76.15 159.904C76.9562 160.836 77.8012 161.746 78.685 162.63L89.9338 173.879C90.8175 174.762 91.7275 175.607 92.66 176.414C98.705 181.656 105.682 185.25 113.006 187.201C130.145 191.766 149.185 187.324 162.63 173.879Z" fill="#80BD3A"/>
<path d="M77.6139 188.934V188.938C77.6139 188.938 77.6101 188.934 77.6038 188.928C77.6076 188.931 77.6101 188.934 77.6139 188.934Z" fill="#80BD3A"/>
</g>
<defs>
<filter id="filter0_i_46_46" x="50" y="50" width="200" height="204" filterUnits="userSpaceOnUse" color-interpolation-filters="sRGB">
<feFlood flood-opacity="0" result="BackgroundImageFix"/>
<feBlend mode="normal" in="SourceGraphic" in2="BackgroundImageFix" result="shape"/>
<feColorMatrix in="SourceAlpha" type="matrix" values="0 0 0 0 0 0 0 0 0 0 0 0 0 0 0 0 0 0 127 0" result="hardAlpha"/>
<feOffset dy="4"/>
<feGaussianBlur stdDeviation="25.9"/>
<feComposite in2="hardAlpha" operator="arithmetic" k2="-1" k3="1"/>
<feColorMatrix type="matrix" values="0 0 0 0 0 0 0 0 0 0 0 0 0 0 0 0 0 0 0.25 0"/>
<feBlend mode="normal" in2="shape" result="effect1_innerShadow_46_46"/>
</filter>
<linearGradient id="paint0_linear_46_46" x1="60.5897" y1="144.535" x2="158.254" y2="46.8702" gradientUnits="userSpaceOnUse">
<stop stop-color="#194939"/>
<stop offset="0.57" stop-color="#80BD3A"/>
<stop offset="1" stop-color="#80BD3A"/>
</linearGradient>
<linearGradient id="paint1_linear_46_46" x1="210.464" y1="126.476" x2="90.2572" y2="173.172" gradientUnits="userSpaceOnUse">
<stop stop-color="#1A4B39"/>
<stop offset="0.13" stop-color="#3E7339"/>
<stop offset="0.25" stop-color="#589039"/>
<stop offset="0.35" stop-color="#68A139"/>
<stop offset="0.42" stop-color="#6EA83A"/>
<stop offset="0.58" stop-color="#80BD3A"/>
<stop offset="0.71" stop-color="#619B39"/>
<stop offset="1" stop-color="#194939"/>
</linearGradient>
<linearGradient id="paint2_linear_46_46" x1="141.53" y1="253.993" x2="235.118" y2="158.443" gradientUnits="userSpaceOnUse">
<stop stop-color="#80BD3A"/>
<stop offset="0.57" stop-color="#80BD3A"/>
<stop offset="0.63" stop-color="#78B439"/>
<stop offset="0.73" stop-color="#659E39"/>
<stop offset="0.86" stop-color="#457A39"/>
<stop offset="1" stop-color="#194939"/>
</linearGradient>
<clipPath id="clip0_46_46">
<rect width="200" height="200" fill="white" transform="translate(50 50)"/>
</clipPath>
</defs>
</svg>
