<?xml version="1.0" encoding="UTF-8"?>
<svg id="Layer_1" xmlns="http://www.w3.org/2000/svg" version="1.1" xmlns:xlink="http://www.w3.org/1999/xlink" viewBox="0 0 1600 1600">
  <!-- Generator: Adobe Illustrator 29.0.0, SVG Export Plug-In . SVG Version: 2.1.0 Build 186)  -->
  <defs>
    <style>
      .st0 {
        fill: url(#linear-gradient2);
      }

      .st1 {
        fill: url(#linear-gradient1);
      }

      .st2 {
        fill: #80bd3a;
      }

      .st3 {
        fill: url(#linear-gradient);
      }
    </style>
    <linearGradient id="linear-gradient" x1="341.75" y1="270.19" x2="1446.7" y2="270.19" gradientTransform="translate(-347.99 806.88) rotate(-45)" gradientUnits="userSpaceOnUse">
      <stop offset="0" stop-color="#194939"/>
      <stop offset=".57" stop-color="#80bd3a"/>
      <stop offset="1" stop-color="#80bd3a"/>
    </linearGradient>
    <linearGradient id="linear-gradient1" x1="1291.72" y1="1015.85" x2="347.58" y2="600.01" gradientTransform="translate(-347.99 806.88) rotate(-45)" gradientUnits="userSpaceOnUse">
      <stop offset="0" stop-color="#194939"/>
      <stop offset="0" stop-color="#1a4b39"/>
      <stop offset=".13" stop-color="#3e7339"/>
      <stop offset=".25" stop-color="#589039"/>
      <stop offset=".35" stop-color="#68a139"/>
      <stop offset=".42" stop-color="#6ea83a"/>
      <stop offset=".58" stop-color="#80bd3a"/>
      <stop offset=".71" stop-color="#619b39"/>
      <stop offset="1" stop-color="#194939"/>
    </linearGradient>
    <linearGradient id="linear-gradient2" x1="180.43" y1="1347.25" x2="1250.35" y2="1336.15" gradientTransform="translate(-347.99 806.88) rotate(-45)" gradientUnits="userSpaceOnUse">
      <stop offset="0" stop-color="#80bd3a"/>
      <stop offset=".57" stop-color="#80bd3a"/>
      <stop offset=".63" stop-color="#78b439"/>
      <stop offset=".73" stop-color="#659e39"/>
      <stop offset=".86" stop-color="#457a39"/>
      <stop offset="1" stop-color="#194939"/>
      <stop offset="1" stop-color="#194939"/>
    </linearGradient>
  </defs>
  <path class="st3" d="M1012.07,121L230.76,902.32l-1.28-1.28c-7.07-7.07-13.82-14.34-20.28-21.8-140-161.55-133.25-406.23,20.28-559.76l198.47-198.47c161.3-161.3,422.82-161.3,584.13,0Z"/>
  <path class="st1" d="M1281.46,608.04l1.28,1.28-381.71,381.71c-107.56,107.56-259.88,143.09-397,106.58-58.58-15.61-114.39-44.37-162.76-86.3-7.46-6.46-14.73-13.21-21.8-20.28l-1.28-1.28,381.71-381.71c107.56-107.56,259.88-143.09,397-106.58,61.78,16.46,120.49,47.57,170.64,93.29,4.71,4.3,9.36,8.72,13.91,13.28Z"/>
  <path class="st0" d="M1370.17,696.75l1.28,1.28c5.82,5.82,11.42,11.76,16.8,17.84,143.59,161.49,137.98,408.94-16.8,563.72l-199.4,199.4c-161.3,161.3-422.82,161.3-584.13,0l782.25-782.25Z"/>
  <path class="st2" d="M1600,880c-.03,105.71-40.34,211.39-121.01,292.06l-107.54,107.54c154.79-154.79,160.39-402.23,16.8-563.73-5.37-6.06-10.97-12-16.8-17.83l-89.99-89.99c-4.57-4.57-9.21-8.98-13.91-13.29-50.17-45.73-108.88-76.83-170.66-93.29-137.11-36.52-289.43-.98-396.99,106.58l107.54-107.54c66.32-66.32,149.58-105.37,235.85-117.17,119.77-16.39,245.32,19.82,339.39,108.57.13.1.26.21.36.31.1.1.18.18.28.28.44.41,1.06,1.03,1.88,1.81.54.54,1.16,1.16,1.88,1.83,1.24,1.24,2.74,2.71,4.46,4.36,1.55,1.55,3.3,3.25,5.21,5.14,19.74,19.36,56,55.1,80.65,80.52,2.94,3.05,5.75,5.96,8.34,8.7.23.23.46.49.67.72,1.32,1.34,2.53,2.63,3.64,3.87,3.69,3.97,7.3,8,10.81,12.1.05.05.1.13.13.18,65.99,77.06,98.97,172.65,99,268.27Z"/>
  <path class="st2" d="M901.04,991.03l-108.47,108.47c-65.96,65.96-148.68,104.96-234.43,116.96-118.64,16.65-243.16-18.35-337.22-104.96v-.03s-.05-.03-.08-.05c-.1-.08-.28-.28-.57-.54-6.86-6.58-66.12-63.59-98.27-97.01-8.67-9.01-15.38-16.31-18.56-20.47l-.03-.03C34.48,915.41.03,817.76,0,720c.03-105.71,40.34-211.39,121.01-292.06l108.47-108.47c-153.53,153.53-160.29,398.21-20.28,559.76,6.45,7.46,13.21,14.74,20.28,21.81l89.99,89.99c7.07,7.07,14.35,13.83,21.81,20.28,48.36,41.94,104.18,70.69,162.77,86.3,137.11,36.52,289.43.98,396.99-106.58Z"/>
  <path class="st2" d="M220.91,1111.47v.03s-.03-.03-.08-.08c.03.03.05.05.08.05Z"/>
</svg>